<svg width="194" height="56" viewBox="0 0 194 56" fill="none" xmlns="http://www.w3.org/2000/svg">
<path d="M0 8C0 3.58172 3.58172 0 8 0H186C190.418 0 194 3.58172 194 8V48C194 52.4183 190.418 56 186 56H8C3.58172 56 0 52.4183 0 48V8Z" fill="#00B4C8"/>
<path d="M39.458 21.6504C40.5127 21.6504 41.3828 21.7822 42.0684 22.0459C42.7598 22.3037 43.2754 22.6992 43.6152 23.2324C43.9551 23.7656 44.125 24.4453 44.125 25.2715C44.125 25.9512 44.002 26.5195 43.7559 26.9766C43.5098 27.4277 43.1875 27.7939 42.7891 28.0752C42.3906 28.3564 41.9658 28.5732 41.5146 28.7256L45.0391 34.5H43.2988L40.1523 29.1387H37.4805V34.5H35.9863V21.6504H39.458ZM39.3701 22.9424H37.4805V27.873H39.5195C40.5684 27.873 41.3389 27.6592 41.8311 27.2314C42.3291 26.8037 42.5781 26.1738 42.5781 25.3418C42.5781 24.4688 42.3145 23.8506 41.7871 23.4873C41.2656 23.124 40.46 22.9424 39.3701 22.9424ZM54.8301 24.8672V34.5H53.6348L53.4238 33.1465H53.3447C53.1455 33.4805 52.8877 33.7617 52.5713 33.9902C52.2549 34.2188 51.8975 34.3887 51.499 34.5C51.1064 34.6172 50.6875 34.6758 50.2422 34.6758C49.4805 34.6758 48.8418 34.5527 48.3262 34.3066C47.8105 34.0605 47.4209 33.6797 47.1572 33.1641C46.8994 32.6484 46.7705 31.9863 46.7705 31.1777V24.8672H48.2471V31.0723C48.2471 31.875 48.4287 32.4756 48.792 32.874C49.1553 33.2666 49.709 33.4629 50.4531 33.4629C51.168 33.4629 51.7363 33.3281 52.1582 33.0586C52.5859 32.7891 52.8936 32.3936 53.0811 31.8721C53.2686 31.3447 53.3623 30.7002 53.3623 29.9385V24.8672H54.8301ZM62.4766 24.6914C63.6191 24.6914 64.4834 24.9727 65.0693 25.5352C65.6553 26.0918 65.9482 26.9883 65.9482 28.2246V34.5H64.5068V28.3213C64.5068 27.5186 64.3223 26.918 63.9531 26.5195C63.5898 26.1211 63.0303 25.9219 62.2744 25.9219C61.208 25.9219 60.458 26.2236 60.0244 26.8271C59.5908 27.4307 59.374 28.3066 59.374 29.4551V34.5H57.915V24.8672H59.0928L59.3125 26.2559H59.3916C59.5967 25.916 59.8574 25.6318 60.1738 25.4033C60.4902 25.1689 60.8447 24.9932 61.2373 24.876C61.6299 24.7529 62.043 24.6914 62.4766 24.6914ZM75.748 34.5L72.0918 24.8672H73.6562L75.7744 30.6943C75.9209 31.0928 76.0703 31.5322 76.2227 32.0127C76.375 32.4932 76.4805 32.8799 76.5391 33.1729H76.6006C76.6709 32.8799 76.7881 32.4932 76.9521 32.0127C77.1162 31.5264 77.2656 31.0869 77.4004 30.6943L79.5186 24.8672H81.083L77.418 34.5H75.748ZM84.0889 24.8672V34.5H82.6299V24.8672H84.0889ZM83.377 21.2637C83.6172 21.2637 83.8223 21.3428 83.9922 21.501C84.168 21.6533 84.2559 21.8936 84.2559 22.2217C84.2559 22.5439 84.168 22.7842 83.9922 22.9424C83.8223 23.1006 83.6172 23.1797 83.377 23.1797C83.125 23.1797 82.9141 23.1006 82.7441 22.9424C82.5801 22.7842 82.498 22.5439 82.498 22.2217C82.498 21.8936 82.5801 21.6533 82.7441 21.501C82.9141 21.3428 83.125 21.2637 83.377 21.2637ZM90.7861 24.709C91.9346 24.709 92.7871 24.9668 93.3438 25.4824C93.9004 25.998 94.1787 26.8213 94.1787 27.9521V34.5H93.1152L92.834 33.0762H92.7637C92.4941 33.4277 92.2129 33.7236 91.9199 33.9639C91.627 34.1982 91.2871 34.377 90.9004 34.5C90.5195 34.6172 90.0508 34.6758 89.4941 34.6758C88.9082 34.6758 88.3867 34.5732 87.9297 34.3682C87.4785 34.1631 87.1211 33.8525 86.8574 33.4365C86.5996 33.0205 86.4707 32.4932 86.4707 31.8545C86.4707 30.8936 86.8516 30.1553 87.6133 29.6396C88.375 29.124 89.5352 28.8428 91.0938 28.7959L92.7549 28.7256V28.1367C92.7549 27.3047 92.5762 26.7217 92.2188 26.3877C91.8613 26.0537 91.3574 25.8867 90.707 25.8867C90.2031 25.8867 89.7227 25.96 89.2656 26.1064C88.8086 26.2529 88.375 26.4258 87.9648 26.625L87.5166 25.5176C87.9502 25.2949 88.4482 25.1045 89.0107 24.9463C89.5732 24.7881 90.165 24.709 90.7861 24.709ZM92.7373 29.7539L91.2695 29.8154C90.0684 29.8623 89.2217 30.0586 88.7295 30.4043C88.2373 30.75 87.9912 31.2393 87.9912 31.8721C87.9912 32.4229 88.1582 32.8301 88.4922 33.0938C88.8262 33.3574 89.2686 33.4893 89.8193 33.4893C90.6748 33.4893 91.375 33.252 91.9199 32.7773C92.4648 32.3027 92.7373 31.5908 92.7373 30.6416V29.7539ZM112.284 27.9521C112.284 29.3994 112.021 30.6094 111.493 31.582C110.966 32.5488 110.201 33.2783 109.199 33.7705C108.203 34.2568 106.993 34.5 105.569 34.5H102.08V21.6504H105.956C107.263 21.6504 108.388 21.8906 109.331 22.3711C110.274 22.8457 111.001 23.5518 111.511 24.4893C112.026 25.4209 112.284 26.5752 112.284 27.9521ZM110.711 28.0049C110.711 26.8506 110.518 25.8984 110.131 25.1484C109.75 24.3984 109.188 23.8418 108.443 23.4785C107.705 23.1094 106.8 22.9248 105.728 22.9248H103.574V33.2168H105.394C107.163 33.2168 108.49 32.7803 109.375 31.9072C110.266 31.0342 110.711 29.7334 110.711 28.0049ZM123.227 29.666C123.227 30.457 123.124 31.1631 122.919 31.7842C122.714 32.4053 122.418 32.9297 122.031 33.3574C121.645 33.7852 121.176 34.1133 120.625 34.3418C120.08 34.5645 119.462 34.6758 118.771 34.6758C118.126 34.6758 117.534 34.5645 116.995 34.3418C116.462 34.1133 115.999 33.7852 115.606 33.3574C115.22 32.9297 114.918 32.4053 114.701 31.7842C114.49 31.1631 114.385 30.457 114.385 29.666C114.385 28.6113 114.563 27.7148 114.921 26.9766C115.278 26.2324 115.788 25.667 116.45 25.2803C117.118 24.8877 117.912 24.6914 118.832 24.6914C119.711 24.6914 120.479 24.8877 121.135 25.2803C121.797 25.6729 122.31 26.2412 122.673 26.9854C123.042 27.7236 123.227 28.6172 123.227 29.666ZM115.896 29.666C115.896 30.4395 115.999 31.1104 116.204 31.6787C116.409 32.2471 116.726 32.6865 117.153 32.9971C117.581 33.3076 118.132 33.4629 118.806 33.4629C119.474 33.4629 120.021 33.3076 120.449 32.9971C120.883 32.6865 121.202 32.2471 121.407 31.6787C121.612 31.1104 121.715 30.4395 121.715 29.666C121.715 28.8984 121.612 28.2363 121.407 27.6797C121.202 27.1172 120.886 26.6836 120.458 26.3789C120.03 26.0742 119.477 25.9219 118.797 25.9219C117.795 25.9219 117.06 26.2529 116.591 26.915C116.128 27.5771 115.896 28.4941 115.896 29.666ZM129.607 34.6758C128.74 34.6758 127.976 34.4971 127.313 34.1396C126.651 33.7822 126.136 33.2373 125.767 32.5049C125.397 31.7725 125.213 30.8496 125.213 29.7363C125.213 28.5703 125.406 27.6182 125.793 26.8799C126.186 26.1357 126.725 25.585 127.41 25.2275C128.096 24.8701 128.875 24.6914 129.748 24.6914C130.229 24.6914 130.691 24.7412 131.137 24.8408C131.588 24.9346 131.957 25.0547 132.244 25.2012L131.805 26.4229C131.512 26.3057 131.172 26.2002 130.785 26.1064C130.404 26.0127 130.047 25.9658 129.713 25.9658C129.045 25.9658 128.488 26.1094 128.043 26.3965C127.604 26.6836 127.272 27.1055 127.05 27.6621C126.833 28.2188 126.725 28.9043 126.725 29.7188C126.725 30.498 126.83 31.1631 127.041 31.7139C127.258 32.2646 127.577 32.6865 127.999 32.9795C128.427 33.2666 128.96 33.4102 129.599 33.4102C130.108 33.4102 130.568 33.3574 130.979 33.252C131.389 33.1406 131.761 33.0117 132.095 32.8652V34.166C131.772 34.3301 131.412 34.4561 131.014 34.5439C130.621 34.6318 130.152 34.6758 129.607 34.6758ZM135.83 20.8242V27.9258C135.83 28.1602 135.821 28.4473 135.804 28.7871C135.786 29.1211 135.771 29.417 135.76 29.6748H135.821C135.944 29.5225 136.123 29.2969 136.357 28.998C136.598 28.6992 136.8 28.459 136.964 28.2773L140.163 24.8672H141.877L138.001 28.9805L142.158 34.5H140.4L136.999 29.9385L135.83 31.0107V34.5H134.38V20.8242H135.83ZM147.546 24.6914C148.366 24.6914 149.069 24.873 149.655 25.2363C150.241 25.5996 150.689 26.1094 151 26.7656C151.311 27.416 151.466 28.1777 151.466 29.0508V29.9561H144.812C144.83 31.0869 145.111 31.9482 145.656 32.54C146.201 33.1318 146.969 33.4277 147.959 33.4277C148.568 33.4277 149.107 33.3721 149.576 33.2607C150.045 33.1494 150.531 32.9854 151.035 32.7686V34.0518C150.549 34.2686 150.065 34.4268 149.585 34.5264C149.11 34.626 148.548 34.6758 147.897 34.6758C146.972 34.6758 146.163 34.4883 145.472 34.1133C144.786 33.7324 144.253 33.1758 143.872 32.4434C143.491 31.7109 143.301 30.8145 143.301 29.7539C143.301 28.7168 143.474 27.8203 143.819 27.0645C144.171 26.3027 144.663 25.7168 145.296 25.3066C145.935 24.8965 146.685 24.6914 147.546 24.6914ZM147.528 25.8867C146.749 25.8867 146.128 26.1416 145.665 26.6514C145.202 27.1611 144.927 27.873 144.839 28.7871H149.937C149.931 28.2129 149.84 27.709 149.664 27.2754C149.494 26.8359 149.233 26.4961 148.882 26.2559C148.53 26.0098 148.079 25.8867 147.528 25.8867ZM158.321 24.6914C158.515 24.6914 158.717 24.7031 158.928 24.7266C159.139 24.7441 159.326 24.7705 159.49 24.8057L159.306 26.1592C159.147 26.1182 158.972 26.0859 158.778 26.0625C158.585 26.0391 158.403 26.0273 158.233 26.0273C157.847 26.0273 157.48 26.1064 157.135 26.2646C156.795 26.417 156.496 26.6396 156.238 26.9326C155.98 27.2197 155.778 27.5684 155.632 27.9785C155.485 28.3828 155.412 28.834 155.412 29.332V34.5H153.944V24.8672H155.157L155.315 26.6426H155.377C155.576 26.2852 155.816 25.96 156.098 25.667C156.379 25.3682 156.704 25.1309 157.073 24.9551C157.448 24.7793 157.864 24.6914 158.321 24.6914Z" fill="white"/>
</svg>
