<svg width="194" height="56" viewBox="0 0 194 56" fill="none" xmlns="http://www.w3.org/2000/svg">
<path d="M0 6C0 2.68629 2.68629 0 6 0H188C191.314 0 194 2.68629 194 6V50C194 53.3137 191.314 56 188 56H6C2.68629 56 0 53.3137 0 50V6Z" fill="#FF6B00"/>
<path d="M52.3174 27.9521C52.3174 29.3994 52.0537 30.6094 51.5264 31.582C50.999 32.5488 50.2344 33.2783 49.2324 33.7705C48.2363 34.2568 47.0264 34.5 45.6025 34.5H42.1133V21.6504H45.9893C47.2959 21.6504 48.4209 21.8906 49.3643 22.3711C50.3076 22.8457 51.0342 23.5518 51.5439 24.4893C52.0596 25.4209 52.3174 26.5752 52.3174 27.9521ZM50.7441 28.0049C50.7441 26.8506 50.5508 25.8984 50.1641 25.1484C49.7832 24.3984 49.2207 23.8418 48.4766 23.4785C47.7383 23.1094 46.833 22.9248 45.7607 22.9248H43.6074V33.2168H45.4268C47.1963 33.2168 48.5234 32.7803 49.4082 31.9072C50.2988 31.0342 50.7441 29.7334 50.7441 28.0049ZM63.2598 29.666C63.2598 30.457 63.1572 31.1631 62.9521 31.7842C62.7471 32.4053 62.4512 32.9297 62.0645 33.3574C61.6777 33.7852 61.209 34.1133 60.6582 34.3418C60.1133 34.5645 59.4951 34.6758 58.8037 34.6758C58.1592 34.6758 57.5674 34.5645 57.0283 34.3418C56.4951 34.1133 56.0322 33.7852 55.6396 33.3574C55.2529 32.9297 54.9512 32.4053 54.7344 31.7842C54.5234 31.1631 54.418 30.457 54.418 29.666C54.418 28.6113 54.5967 27.7148 54.9541 26.9766C55.3115 26.2324 55.8213 25.667 56.4834 25.2803C57.1514 24.8877 57.9453 24.6914 58.8652 24.6914C59.7441 24.6914 60.5117 24.8877 61.168 25.2803C61.8301 25.6729 62.3428 26.2412 62.7061 26.9854C63.0752 27.7236 63.2598 28.6172 63.2598 29.666ZM55.9297 29.666C55.9297 30.4395 56.0322 31.1104 56.2373 31.6787C56.4424 32.2471 56.7588 32.6865 57.1865 32.9971C57.6143 33.3076 58.165 33.4629 58.8389 33.4629C59.5068 33.4629 60.0547 33.3076 60.4824 32.9971C60.916 32.6865 61.2354 32.2471 61.4404 31.6787C61.6455 31.1104 61.748 30.4395 61.748 29.666C61.748 28.8984 61.6455 28.2363 61.4404 27.6797C61.2354 27.1172 60.9189 26.6836 60.4912 26.3789C60.0635 26.0742 59.5098 25.9219 58.8301 25.9219C57.8281 25.9219 57.0928 26.2529 56.624 26.915C56.1611 27.5771 55.9297 28.4941 55.9297 29.666ZM73.6221 34.4824L71.9082 28.875C71.832 28.6348 71.7588 28.4004 71.6885 28.1719C71.624 27.9375 71.5625 27.7148 71.5039 27.5039C71.4512 27.2871 71.4014 27.0879 71.3545 26.9062C71.3135 26.7188 71.2783 26.5576 71.249 26.4229H71.1875C71.1641 26.5576 71.1318 26.7188 71.0908 26.9062C71.0498 27.0879 71 27.2871 70.9414 27.5039C70.8887 27.7207 70.8301 27.9492 70.7656 28.1895C70.7012 28.4238 70.6279 28.6611 70.5459 28.9014L68.7529 34.4824H67.1094L64.4551 24.8496H65.9668L67.3555 30.167C67.4492 30.5186 67.5371 30.8672 67.6191 31.2129C67.707 31.5527 67.7803 31.875 67.8389 32.1797C67.9033 32.4785 67.9502 32.7393 67.9795 32.9619H68.0498C68.085 32.8154 68.123 32.6396 68.1641 32.4346C68.2109 32.2295 68.2607 32.0127 68.3135 31.7842C68.3721 31.5498 68.4336 31.3184 68.498 31.0898C68.5625 30.8555 68.627 30.6357 68.6914 30.4307L70.4668 24.8496H72.04L73.7539 30.4219C73.8418 30.7031 73.9268 30.9961 74.0088 31.3008C74.0967 31.6055 74.1758 31.9014 74.2461 32.1885C74.3164 32.4697 74.3662 32.7217 74.3955 32.9443H74.4658C74.4893 32.7451 74.5332 32.499 74.5977 32.2061C74.6621 31.9131 74.7354 31.5908 74.8174 31.2393C74.9053 30.8877 74.9961 30.5303 75.0898 30.167L76.4961 24.8496H77.9814L75.3184 34.4824H73.6221ZM84.3008 24.6914C85.4434 24.6914 86.3076 24.9727 86.8936 25.5352C87.4795 26.0918 87.7725 26.9883 87.7725 28.2246V34.5H86.3311V28.3213C86.3311 27.5186 86.1465 26.918 85.7773 26.5195C85.4141 26.1211 84.8545 25.9219 84.0986 25.9219C83.0322 25.9219 82.2822 26.2236 81.8486 26.8271C81.415 27.4307 81.1982 28.3066 81.1982 29.4551V34.5H79.7393V24.8672H80.917L81.1367 26.2559H81.2158C81.4209 25.916 81.6816 25.6318 81.998 25.4033C82.3145 25.1689 82.6689 24.9932 83.0615 24.876C83.4541 24.7529 83.8672 24.6914 84.3008 24.6914ZM92.2461 34.5H90.7783V20.8242H92.2461V34.5ZM103.637 29.666C103.637 30.457 103.534 31.1631 103.329 31.7842C103.124 32.4053 102.828 32.9297 102.441 33.3574C102.055 33.7852 101.586 34.1133 101.035 34.3418C100.49 34.5645 99.8721 34.6758 99.1807 34.6758C98.5361 34.6758 97.9443 34.5645 97.4053 34.3418C96.8721 34.1133 96.4092 33.7852 96.0166 33.3574C95.6299 32.9297 95.3281 32.4053 95.1113 31.7842C94.9004 31.1631 94.7949 30.457 94.7949 29.666C94.7949 28.6113 94.9736 27.7148 95.3311 26.9766C95.6885 26.2324 96.1982 25.667 96.8604 25.2803C97.5283 24.8877 98.3223 24.6914 99.2422 24.6914C100.121 24.6914 100.889 24.8877 101.545 25.2803C102.207 25.6729 102.72 26.2412 103.083 26.9854C103.452 27.7236 103.637 28.6172 103.637 29.666ZM96.3066 29.666C96.3066 30.4395 96.4092 31.1104 96.6143 31.6787C96.8193 32.2471 97.1357 32.6865 97.5635 32.9971C97.9912 33.3076 98.542 33.4629 99.2158 33.4629C99.8838 33.4629 100.432 33.3076 100.859 32.9971C101.293 32.6865 101.612 32.2471 101.817 31.6787C102.022 31.1104 102.125 30.4395 102.125 29.666C102.125 28.8984 102.022 28.2363 101.817 27.6797C101.612 27.1172 101.296 26.6836 100.868 26.3789C100.44 26.0742 99.8867 25.9219 99.207 25.9219C98.2051 25.9219 97.4697 26.2529 97.001 26.915C96.5381 27.5771 96.3066 28.4941 96.3066 29.666ZM109.763 24.709C110.911 24.709 111.764 24.9668 112.32 25.4824C112.877 25.998 113.155 26.8213 113.155 27.9521V34.5H112.092L111.811 33.0762H111.74C111.471 33.4277 111.189 33.7236 110.896 33.9639C110.604 34.1982 110.264 34.377 109.877 34.5C109.496 34.6172 109.027 34.6758 108.471 34.6758C107.885 34.6758 107.363 34.5732 106.906 34.3682C106.455 34.1631 106.098 33.8525 105.834 33.4365C105.576 33.0205 105.447 32.4932 105.447 31.8545C105.447 30.8936 105.828 30.1553 106.59 29.6396C107.352 29.124 108.512 28.8428 110.07 28.7959L111.731 28.7256V28.1367C111.731 27.3047 111.553 26.7217 111.195 26.3877C110.838 26.0537 110.334 25.8867 109.684 25.8867C109.18 25.8867 108.699 25.96 108.242 26.1064C107.785 26.2529 107.352 26.4258 106.941 26.625L106.493 25.5176C106.927 25.2949 107.425 25.1045 107.987 24.9463C108.55 24.7881 109.142 24.709 109.763 24.709ZM111.714 29.7539L110.246 29.8154C109.045 29.8623 108.198 30.0586 107.706 30.4043C107.214 30.75 106.968 31.2393 106.968 31.8721C106.968 32.4229 107.135 32.8301 107.469 33.0938C107.803 33.3574 108.245 33.4893 108.796 33.4893C109.651 33.4893 110.352 33.252 110.896 32.7773C111.441 32.3027 111.714 31.5908 111.714 30.6416V29.7539ZM119.589 34.6758C118.37 34.6758 117.403 34.2598 116.688 33.4277C115.979 32.5957 115.625 31.3594 115.625 29.7188C115.625 28.0605 115.988 26.8096 116.715 25.9658C117.441 25.1162 118.408 24.6914 119.615 24.6914C120.125 24.6914 120.57 24.7588 120.951 24.8936C121.332 25.0283 121.66 25.21 121.936 25.4385C122.211 25.6611 122.442 25.916 122.63 26.2031H122.735C122.712 26.0215 122.688 25.7725 122.665 25.4561C122.642 25.1396 122.63 24.8818 122.63 24.6826V20.8242H124.089V34.5H122.911L122.691 33.1289H122.63C122.448 33.416 122.217 33.6768 121.936 33.9111C121.66 34.1455 121.329 34.333 120.942 34.4736C120.562 34.6084 120.11 34.6758 119.589 34.6758ZM119.817 33.4629C120.849 33.4629 121.578 33.1699 122.006 32.584C122.434 31.998 122.647 31.1279 122.647 29.9736V29.71C122.647 28.4854 122.442 27.5449 122.032 26.8887C121.628 26.2324 120.89 25.9043 119.817 25.9043C118.921 25.9043 118.25 26.25 117.805 26.9414C117.359 27.627 117.137 28.5645 117.137 29.7539C117.137 30.9375 117.356 31.8516 117.796 32.4961C118.241 33.1406 118.915 33.4629 119.817 33.4629Z" fill="white"/>
<path fill-rule="evenodd" clip-rule="evenodd" d="M146.854 35.3875C146.997 35.4827 147.165 35.5334 147.336 35.5332C147.45 35.5334 147.563 35.5111 147.668 35.4677C147.774 35.4242 147.869 35.3604 147.95 35.2799L153.895 29.3332L147.95 23.3865C147.785 23.2338 147.568 23.1509 147.343 23.1551C147.119 23.1594 146.905 23.2504 146.746 23.4092C146.587 23.568 146.496 23.7821 146.492 24.0066C146.487 24.2311 146.57 24.4485 146.723 24.6132L150.577 28.4662H139.335C139.106 28.4662 138.885 28.5575 138.723 28.72C138.56 28.8825 138.469 29.103 138.469 29.3328C138.469 29.5627 138.56 29.7831 138.723 29.9457C138.885 30.1082 139.106 30.1995 139.335 30.1995H150.578L146.723 34.0532C146.602 34.1744 146.519 34.3289 146.485 34.4972C146.452 34.6654 146.469 34.8398 146.535 34.9983C146.6 35.1568 146.712 35.2922 146.854 35.3875Z" fill="white"/>
</svg>
